<svg id="svg" xmlns="http://www.w3.org/2000/svg" xmlns:xlink="http://www.w3.org/1999/xlink" width="400" height="400" viewBox="0, 0, 400,400"><g id="svgg"><path id="path0" d="M16.314 46.383 C 9.890 48.697,5.294 52.679,2.218 58.594 L 0.391 62.109 0.187 174.162 C 0.076 235.790,0.115 286.064,0.276 285.880 C 0.436 285.697,13.711 257.959,29.776 224.240 C 62.277 156.022,61.628 157.130,71.965 152.163 C 79.805 148.396,76.774 148.477,210.432 148.457 L 337.660 148.438 337.360 129.492 C 336.981 105.588,335.031 100.552,323.878 94.666 L 319.922 92.578 243.285 92.368 L 166.649 92.158 153.611 73.881 C 139.034 53.446,136.311 50.309,130.793 47.593 L 126.953 45.703 73.047 45.534 C 30.373 45.400,18.552 45.577,16.314 46.383 M92.269 171.549 C 83.098 174.015,74.995 180.607,70.663 189.127 C 69.479 191.455,53.097 225.673,34.257 265.168 L 0.003 336.976 1.878 341.070 C 5.459 348.893,12.839 354.178,22.040 355.508 C 28.679 356.468,304.120 356.428,311.528 355.466 C 329.331 353.153,328.352 354.539,367.188 276.653 L 399.609 211.630 399.609 202.885 C 399.609 186.864,390.864 175.548,375.363 171.510 C 368.611 169.751,98.816 169.788,92.269 171.549 " stroke="none" fill="#ffffff" fill-rule="evenodd"></path></g></svg>